<?xml version="1.0" encoding="utf-8"?>
<!-- Generator: Adobe Illustrator 24.1.3, SVG Export Plug-In . SVG Version: 6.00 Build 0)  -->
<svg version="1.1" id="Layer_1" xmlns="http://www.w3.org/2000/svg" xmlns:xlink="http://www.w3.org/1999/xlink" x="0px" y="0px"
	 viewBox="0 0 17 17" style="enable-background:new 0 0 17 17;" xml:space="preserve">
<style type="text/css">
	.st0{clip-path:url(#SVGID_2_);fill:none;stroke:#000000;stroke-width:0.76;}
	.st1{fill:#231F20;}
	.st2{clip-path:url(#SVGID_4_);fill:none;stroke:#000000;stroke-width:0.599;}
	.st3{fill:none;}
	.st4{fill:none;stroke:#FFFFFF;stroke-width:0.849;}
</style>
<g>
	<path class="st3" d="M0.2,0.2V16.8H16.8V0.2H0.2z M8.5,16.37c-4.35,0-7.87-3.52-7.87-7.87S4.15,0.63,8.5,0.63s7.87,3.52,7.87,7.87
		S12.85,16.37,8.5,16.37z"/>
	<path class="st4" d="M8.5,0.63c-4.35,0-7.87,3.52-7.87,7.87s3.52,7.87,7.87,7.87s7.87-3.52,7.87-7.87S12.85,0.63,8.5,0.63z
		 M8.5,3.03c1.45,0,2.62,1.17,2.62,2.62c0,1.45-1.17,2.62-2.62,2.62c-1.45,0-2.62-1.17-2.62-2.62C5.88,4.21,7.05,3.03,8.5,3.03z
		 M8.5,10.03c-2.56,0-4.67,1.91-4.99,4.38C3.83,11.94,5.94,10.03,8.5,10.03c2.61,0,4.76,1.99,5.01,4.54
		C13.26,12.02,11.11,10.03,8.5,10.03z"/>
	<path class="st4" d="M8.5,8.28c1.45,0,2.62-1.17,2.62-2.62c0-1.45-1.17-2.62-2.62-2.62c-1.45,0-2.62,1.17-2.62,2.62
		C5.88,7.11,7.05,8.28,8.5,8.28z"/>
</g>
</svg>
